<?xml version="1.0" standalone="no"?>
<!DOCTYPE svg PUBLIC "-//W3C//DTD SVG 20010904//EN"
 "http://www.w3.org/TR/2001/REC-SVG-20010904/DTD/svg10.dtd">
<svg version="1.0" xmlns="http://www.w3.org/2000/svg"
 width="300.000000pt" height="300.000000pt" viewBox="0 0 300.000000 300.000000"
 preserveAspectRatio="xMidYMid meet">
<metadata>
Created by potrace 1.10, written by Peter Selinger 2001-2011
</metadata>
<g transform="translate(0.000000,300.000000) scale(0.100000,-0.100000)"
fill="#000000" stroke="none">
<path d="M2455 2986 c-16 -8 -92 -76 -167 -153 -155 -156 -151 -148 -123 -273
19 -86 19 -85 -12 -99 -16 -7 -71 -41 -123 -75 -280 -184 -495 -409 -589 -618
-45 -99 -81 -224 -88 -303 -5 -65 -4 -74 16 -94 26 -26 63 -27 169 -5 175 36
359 129 504 256 124 110 299 325 390 483 23 39 42 72 44 74 1 1 38 -4 82 -13
131 -26 118 -32 274 122 224 219 222 239 -26 317 l-153 49 -48 153 c-26 84
-55 159 -64 167 -26 22 -54 26 -86 12z m64 -30 c13 -16 43 -98 77 -216 14 -47
33 -93 41 -103 9 -9 82 -38 162 -63 80 -26 152 -51 159 -56 29 -24 9 -54 -119
-183 -72 -73 -141 -138 -154 -145 -20 -11 -40 -10 -116 5 l-92 18 -26 -31
c-14 -16 -51 -72 -81 -122 -107 -179 -311 -403 -454 -500 -136 -91 -312 -160
-453 -175 -78 -9 -88 2 -79 88 12 125 71 285 147 402 69 107 148 194 266 295
149 127 136 118 253 192 165 105 153 92 147 157 -4 31 -9 80 -13 110 l-7 53
145 144 c143 143 171 161 197 130z"/>
<path d="M560 2530 c-152 -20 -265 -74 -370 -180 -134 -134 -180 -258 -180
-489 0 -186 24 -305 100 -496 157 -396 535 -835 945 -1096 177 -112 413 -211
585 -243 78 -15 219 -22 208 -11 -3 3 -57 15 -121 26 -263 44 -481 134 -722
297 -459 310 -827 800 -935 1242 -48 199 -56 274 -36 378 32 178 69 261 157
357 114 124 273 184 489 185 202 0 370 -42 591 -148 111 -54 243 -134 240
-147 -3 -14 -135 -184 -143 -184 -4 -1 -31 14 -60 33 -69 44 -179 99 -272 135
-214 85 -434 97 -567 31 -63 -32 -132 -108 -158 -177 -46 -118 -38 -306 21
-478 90 -261 236 -490 461 -721 76 -79 164 -162 195 -186 31 -23 59 -46 62
-49 6 -8 76 -57 146 -103 252 -167 549 -257 744 -227 141 22 224 83 282 207
56 120 50 301 -19 498 -33 96 -121 281 -162 341 -12 17 -21 33 -21 36 0 3 42
40 94 82 107 86 96 87 158 -18 87 -146 141 -270 190 -429 27 -91 31 -118 35
-272 6 -200 -2 -252 -58 -364 -89 -178 -227 -275 -447 -316 -123 -22 -142 -33
-62 -33 270 -2 515 194 587 469 26 100 23 317 -7 440 -46 191 -127 382 -236
556 -67 107 -63 103 -75 82 -11 -19 -149 -133 -197 -161 -29 -17 -31 -21 -19
-36 26 -29 122 -204 155 -281 69 -163 97 -297 90 -435 -8 -149 -61 -241 -172
-297 -54 -28 -73 -32 -169 -36 -119 -5 -185 5 -323 49 -359 115 -780 461
-1029 847 -54 84 -143 269 -173 357 -61 183 -68 371 -18 481 31 68 64 105 121
138 179 103 536 33 849 -168 57 -37 76 -43 76 -27 0 11 130 180 159 205 l21
19 -52 34 c-329 217 -677 320 -958 283z"/>
<path d="M833 1981 c-71 -24 -113 -59 -148 -122 -102 -189 22 -502 324 -812
297 -305 615 -451 816 -376 188 70 225 283 95 545 l-51 102 -82 -35 c-192 -81
-382 -108 -462 -66 -47 25 -86 64 -111 113 -39 75 -7 283 69 460 l34 79 -101
50 c-158 79 -278 99 -383 62z m264 -46 c43 -14 101 -38 130 -55 l51 -29 -30
-72 c-70 -167 -98 -369 -63 -453 24 -56 89 -121 148 -146 44 -19 63 -22 127
-17 41 4 100 13 130 22 30 8 66 18 79 21 13 3 59 19 102 35 43 17 84 27 90 23
19 -12 78 -148 95 -221 46 -197 -42 -345 -215 -360 -271 -25 -724 305 -955
696 -75 127 -101 212 -101 331 0 103 10 132 61 184 79 78 193 92 351 41z"/>
</g>
</svg>
