<?xml version="1.0" standalone="no"?>
<!DOCTYPE svg PUBLIC "-//W3C//DTD SVG 20010904//EN"
 "http://www.w3.org/TR/2001/REC-SVG-20010904/DTD/svg10.dtd">
<svg version="1.0" xmlns="http://www.w3.org/2000/svg"
 width="512.000000pt" height="512.000000pt" viewBox="0 0 512.000000 512.000000"
 preserveAspectRatio="xMidYMid meet">
<metadata>
Created by potrace 1.11, written by Peter Selinger 2001-2013
</metadata>
<g transform="translate(0.000000,512.000000) scale(0.100000,-0.100000)"
fill="#000000" stroke="none">
<path d="M4185 5101 c-16 -10 -139 -129 -272 -263 -175 -176 -243 -251 -245
-268 -2 -44 3 -83 28 -213 14 -71 24 -130 22 -131 -2 -1 -41 -24 -88 -50 -81
-46 -240 -145 -250 -156 -3 -3 -35 -27 -72 -53 -36 -26 -72 -53 -80 -60 -7 -7
-22 -19 -34 -27 -109 -77 -386 -337 -467 -440 -28 -36 -54 -67 -57 -70 -31
-27 -170 -255 -208 -340 -84 -186 -147 -407 -159 -556 -6 -83 9 -123 60 -155
27 -17 43 -19 102 -15 301 22 703 195 965 414 146 123 356 352 506 552 132
177 173 239 251 383 l36 69 36 -7 c282 -55 283 -55 326 -36 50 23 525 498 526
526 0 11 2 31 5 43 5 30 -21 87 -50 105 -19 13 -89 36 -440 147 -49 15 -93 34
-97 43 -5 8 -43 125 -85 258 -42 134 -82 252 -89 262 -37 52 -120 71 -170 38z"/>
<path d="M1117 4335 c-1 -1 -40 -5 -87 -8 -47 -4 -98 -9 -115 -12 -246 -48
-436 -141 -585 -286 -177 -172 -276 -379 -315 -654 -17 -119 -12 -357 10 -487
31 -182 124 -506 157 -542 4 -6 8 -16 8 -24 0 -15 141 -305 191 -392 171 -298
407 -599 689 -880 177 -177 235 -228 410 -364 69 -53 130 -100 135 -104 135
-107 506 -314 702 -393 187 -75 434 -147 559 -164 27 -3 76 -10 109 -14 64 -9
351 -7 400 3 17 3 46 9 65 13 19 3 40 7 46 8 60 13 195 62 258 95 161 83 286
193 393 347 59 83 141 283 158 383 23 134 28 191 27 320 0 69 -3 139 -6 155
-16 101 -19 122 -21 145 -5 46 -55 240 -89 344 -81 246 -223 532 -391 784
l-48 73 -30 -28 c-17 -15 -42 -40 -56 -54 -40 -40 -181 -152 -252 -199 -35
-24 -65 -44 -67 -45 -2 -2 22 -42 52 -91 262 -422 393 -810 382 -1134 -14
-401 -228 -604 -636 -603 -363 1 -790 162 -1218 460 -95 66 -264 197 -337 262
-74 66 -330 326 -380 386 -28 33 -56 66 -63 74 -57 59 -258 347 -324 461 -161
280 -265 557 -304 810 -14 92 -19 270 -9 320 3 14 8 39 11 55 43 241 198 393
449 442 50 10 294 9 355 -1 25 -4 56 -9 70 -11 187 -31 544 -173 729 -289 22
-14 42 -26 44 -26 3 0 39 -23 82 -51 81 -54 79 -54 107 -4 16 30 142 195 184
240 20 22 54 58 76 81 l39 41 -108 70 c-423 277 -876 449 -1258 478 -91 7
-194 12 -198 10z"/>
<path d="M1545 3413 c-182 -28 -299 -100 -371 -229 -48 -87 -65 -152 -65 -259
-1 -118 6 -158 46 -279 74 -225 211 -456 424 -711 60 -71 343 -346 421 -408
121 -97 302 -216 417 -274 305 -155 543 -187 730 -98 233 113 318 359 232 675
-11 41 -27 90 -35 110 -42 97 -59 132 -106 217 l-51 92 -36 -16 c-179 -78
-308 -123 -442 -153 -144 -32 -166 -35 -279 -35 -89 1 -112 5 -155 25 -148 70
-236 204 -236 360 -1 169 75 456 184 701 l26 56 -42 22 c-23 12 -71 38 -107
58 -174 97 -432 165 -555 146z"/>
</g>
</svg>
